<svg width="46" height="61" viewBox="0 0 46 61" fill="none" xmlns="http://www.w3.org/2000/svg">
<rect width="44.8734" height="60.2122" fill="black" fill-opacity="0" transform="translate(0.563477 0.164185)"/>
<rect width="44.8734" height="60.2122" fill="black" fill-opacity="0" transform="translate(0.563477 0.164185)"/>
<rect width="44.8734" height="47.6154" fill="black" fill-opacity="0" transform="translate(0.563477 7.49976)"/>
<path d="M27.6169 45.1287H18.3833V55.1153H27.6169V45.1287Z" fill="#FDCC9B"/>
<path d="M18.3833 46.3048C18.3833 46.3048 22.2674 48.6933 27.6169 48.14V45.1284H18.3833V46.3048Z" fill="#FCBC85"/>
<path d="M5.06891 34.6069C7.55719 34.6069 9.57435 32.3845 9.57435 29.643C9.57435 26.9015 7.55719 24.6791 5.06891 24.6791C2.58063 24.6791 0.563477 26.9015 0.563477 29.643C0.563477 32.3845 2.58063 34.6069 5.06891 34.6069Z" fill="#FCBC85"/>
<path d="M40.9312 34.6069C43.4195 34.6069 45.4367 32.3845 45.4367 29.643C45.4367 26.9015 43.4195 24.6791 40.9312 24.6791C38.4429 24.6791 36.4258 26.9015 36.4258 29.643C36.4258 32.3845 38.4429 34.6069 40.9312 34.6069Z" fill="#FCBC85"/>
<path d="M40.9131 20.1616C40.9131 12.8501 35.373 7.49976 23.0001 7.49976C10.6272 7.49976 5.08704 12.8498 5.08704 20.1616C5.08704 27.4734 3.79443 46.7335 23.0001 46.7335C42.2058 46.7335 40.9131 27.4734 40.9131 20.1616Z" fill="#FDCC9B"/>
<rect width="24.0322" height="9.5854" fill="black" fill-opacity="0" transform="translate(10.9839 20.9198)"/>
<rect width="3.87813" height="4.10181" fill="black" fill-opacity="0" transform="translate(12.3359 26.4033)"/>
<path d="M14.275 30.5051C15.3459 30.5051 16.2141 29.5869 16.2141 28.4542C16.2141 27.3215 15.3459 26.4033 14.275 26.4033C13.2041 26.4033 12.3359 27.3215 12.3359 28.4542C12.3359 29.5869 13.2041 30.5051 14.275 30.5051Z" fill="#3B2519"/>
<path d="M13.43 28.1087C13.7502 28.1087 14.0098 27.858 14.0098 27.5487C14.0098 27.2395 13.7502 26.9888 13.43 26.9888C13.1097 26.9888 12.8501 27.2395 12.8501 27.5487C12.8501 27.858 13.1097 28.1087 13.43 28.1087Z" fill="white"/>
<path d="M11.1731 23.3717C12.09 23.8146 13.5623 21.8671 16.9325 23.5613C17.5469 23.8701 17.9135 20.9198 14.3011 20.9198C11.1731 20.9198 10.619 23.1045 11.1731 23.3717Z" fill="#51362A"/>
<rect width="3.87814" height="4.10181" fill="black" fill-opacity="0" transform="translate(30.0254 26.4033)"/>
<path d="M31.9645 30.5051C33.0354 30.5051 33.9035 29.5869 33.9035 28.4542C33.9035 27.3215 33.0354 26.4033 31.9645 26.4033C30.8935 26.4033 30.0254 27.3215 30.0254 28.4542C30.0254 29.5869 30.8935 30.5051 31.9645 30.5051Z" fill="#3B2519"/>
<path d="M31.1189 28.1087C31.4392 28.1087 31.6988 27.858 31.6988 27.5487C31.6988 27.2395 31.4392 26.9888 31.1189 26.9888C30.7987 26.9888 30.5391 27.2395 30.5391 27.5487C30.5391 27.858 30.7987 28.1087 31.1189 28.1087Z" fill="white"/>
<path d="M34.8269 23.3717C33.91 23.8146 32.4377 21.8671 29.0675 23.5613C28.4531 23.8701 28.0865 20.9198 31.6992 20.9198C34.8269 20.9198 35.3807 23.1045 34.8269 23.3717Z" fill="#51362A"/>
<path d="M23.0004 35.6682C21.0843 35.6682 19.9302 34.2862 19.9302 34.9547C19.9302 35.6236 20.4843 36.8943 23.0004 36.8943C25.5165 36.8943 26.0706 35.6236 26.0706 34.9547C26.0706 34.2859 24.9162 35.6682 23.0004 35.6682Z" fill="#FCBC85"/>
<path d="M23 41.8167C22.3372 41.8167 21.938 41.3387 21.938 41.5701C21.938 41.8016 22.1296 42.2408 23 42.2408C23.8705 42.2408 24.0618 41.8016 24.0618 41.5701C24.0618 41.3387 23.6625 41.8167 23 41.8167Z" fill="#FCBC85"/>
<path d="M23 40.1129C19.9631 40.1129 18.1333 38.9187 18.1333 39.2214C18.1333 39.5241 19.0116 40.7151 23 40.7151C26.9884 40.7151 27.8666 39.5241 27.8666 39.2214C27.8663 38.9187 26.0369 40.1129 23 40.1129Z" fill="#F7945E"/>
<path d="M23.0002 49.141V60.3762H0.563477C0.563477 55.8285 12.3816 49.141 23.0002 49.141Z" fill="#F7941E"/>
<path d="M23 49.141V60.3762H45.4367C45.4367 55.8285 33.6185 49.141 23 49.141Z" fill="#F7941E"/>
<path d="M23.0005 49.141C20.7419 49.141 18.4294 49.4459 16.1875 49.9661C16.2026 49.9852 18.6741 53.0644 23.0005 53.0644C27.0068 53.0644 29.6702 50.4275 30.0562 50.0219C27.7387 49.4665 25.3407 49.141 23.0005 49.141Z" fill="#F36C21"/>
<path d="M18.3833 49.5301C18.3833 49.5301 19.7337 51.1475 22.9999 51.1475C26.2662 51.1475 27.6169 49.5301 27.6169 49.5301C27.6169 49.5301 22.8272 47.8463 18.3833 49.5301Z" fill="#FDCC9B"/>
<path d="M37.7273 5.93992C37.7273 5.93992 31.0793 -2.2188 17.2617 0.857403C3.4445 3.9333 2.40916 11.9585 2.82474 19.7663C3.24032 27.5743 4.34823 32.1548 5.65874 31.5888C6.96925 31.0224 6.28729 25.8687 6.42582 24.6792C6.56435 23.4898 7.81078 18.111 16.2145 18.9136C24.6178 19.7162 31.6994 16.7735 31.6994 16.7735C31.6994 16.7735 34.55 20.2532 36.4259 20.9199C40.1746 22.2519 38.9452 31.1335 40.414 31.1335C41.8828 31.1335 49.0847 10.6211 37.7273 5.93992Z" fill="#51362A"/>
</svg>
