<svg width="53" height="60" viewBox="0 0 53 60" fill="none" xmlns="http://www.w3.org/2000/svg">
<rect width="51.4404" height="59.1173" fill="black" fill-opacity="0" transform="translate(0.659668 0.258911)"/>
<rect width="51.4404" height="59.1173" fill="black" fill-opacity="0" transform="translate(0.659668 0.258911)"/>
<path d="M26.4215 12.7057V58.4731C26.4215 58.4731 0.659668 61.1653 0.659668 48.5C0.659668 48.5 7.57931 49.3796 6.16259 43.5593C4.36667 36.1806 5.37128 24.2305 6.16259 17.6991C6.95391 11.1674 26.4215 12.7057 26.4215 12.7057Z" fill="#330C00"/>
<path d="M26.3384 12.7057V58.4731C26.3384 58.4731 52.1002 61.1653 52.1002 48.5C52.1002 48.5 45.1806 49.3796 46.5973 43.5593C48.3932 36.1806 47.3886 24.2305 46.5973 17.6991C45.8057 11.1674 26.3384 12.7057 26.3384 12.7057Z" fill="#330C00"/>
<path d="M26.8711 51.6665V44.9986C26.8711 44.9986 37.3659 44.678 37.3659 51.0838L26.8711 51.6665Z" fill="#00B497"/>
<path d="M25.9718 51.6665V44.9986C25.9718 44.9986 15.4771 44.678 15.4771 51.0838L25.9718 51.6665Z" fill="#00B497"/>
<rect width="40.5172" height="44.8993" fill="black" fill-opacity="0" transform="translate(6.1626 9.5166)"/>
<rect width="40.5172" height="44.8993" fill="black" fill-opacity="0" transform="translate(6.1626 9.5166)"/>
<path d="M30.5901 44.9985H22.2529V54.4158H30.5901V44.9985Z" fill="#FDCC9B"/>
<path d="M22.2529 46.1078C22.2529 46.1078 25.7597 48.3601 30.5901 47.8386V44.9985H22.2529V46.1078Z" fill="#FCBC85"/>
<path d="M10.2307 35.0769C12.4774 35.0769 14.2987 32.9813 14.2987 30.3962C14.2987 27.8111 12.4774 25.7155 10.2307 25.7155C7.98393 25.7155 6.1626 27.8111 6.1626 30.3962C6.1626 32.9813 7.98393 35.0769 10.2307 35.0769Z" fill="#FCBC85"/>
<path d="M42.6115 35.0769C44.8582 35.0769 46.6796 32.9813 46.6796 30.3962C46.6796 27.8111 44.8582 25.7155 42.6115 25.7155C40.3648 25.7155 38.5435 27.8111 38.5435 30.3962C38.5435 32.9813 40.3648 35.0769 42.6115 35.0769Z" fill="#FCBC85"/>
<path d="M42.5953 21.4559C42.5953 14.5612 37.593 9.5166 26.4215 9.5166C15.2494 9.5166 10.2474 14.5615 10.2474 21.4559C10.2474 28.3506 9.08026 46.512 26.4215 46.512C43.7627 46.512 42.5953 28.3508 42.5953 21.4559Z" fill="#FDCC9B"/>
<rect width="21.6989" height="7.87422" fill="black" fill-opacity="0" transform="translate(15.5718 23.3352)"/>
<rect width="3.50166" height="3.86782" fill="black" fill-opacity="0" transform="translate(16.7925 27.3416)"/>
<path d="M18.5433 31.2094C19.5103 31.2094 20.2941 30.3435 20.2941 29.2755C20.2941 28.2074 19.5103 27.3416 18.5433 27.3416C17.5764 27.3416 16.7925 28.2074 16.7925 29.2755C16.7925 30.3435 17.5764 31.2094 18.5433 31.2094Z" fill="#3B2519"/>
<path d="M17.7799 28.9497C18.0691 28.9497 18.3035 28.7133 18.3035 28.4217C18.3035 28.1301 18.0691 27.8937 17.7799 27.8937C17.4908 27.8937 17.2563 28.1301 17.2563 28.4217C17.2563 28.7133 17.4908 28.9497 17.7799 28.9497Z" fill="white"/>
<path d="M15.7426 25.1059C16.5705 25.4254 17.8999 24.0192 20.9432 25.2426C21.4977 25.4657 21.829 23.3353 18.567 23.3353C15.7426 23.3353 15.2423 24.9125 15.7426 25.1059Z" fill="#684B37"/>
<rect width="3.50166" height="3.86782" fill="black" fill-opacity="0" transform="translate(32.7646 27.3416)"/>
<path d="M34.5155 31.2094C35.4824 31.2094 36.2663 30.3435 36.2663 29.2755C36.2663 28.2074 35.4824 27.3416 34.5155 27.3416C33.5485 27.3416 32.7646 28.2074 32.7646 29.2755C32.7646 30.3435 33.5485 31.2094 34.5155 31.2094Z" fill="#3B2519"/>
<path d="M33.7524 28.9498C34.0417 28.9498 34.2762 28.7133 34.2762 28.4215C34.2762 28.1297 34.0417 27.8932 33.7524 27.8932C33.4631 27.8932 33.2285 28.1297 33.2285 28.4215C33.2285 28.7133 33.4631 28.9498 33.7524 28.9498Z" fill="white"/>
<path d="M37.0996 25.1058C36.2717 25.4253 34.9426 24.0191 31.8993 25.2425C31.3448 25.4656 31.0135 23.3352 34.2755 23.3352C37.0996 23.3352 37.5999 24.9124 37.0996 25.1058Z" fill="#684B37"/>
<path d="M26.4211 36.0779C24.691 36.0779 23.6489 34.7744 23.6489 35.4051C23.6489 36.0356 24.1492 37.2341 26.4211 37.2341C28.6929 37.2341 29.193 36.0358 29.193 35.4051C29.193 34.7744 28.1509 36.0779 26.4211 36.0779Z" fill="#FCBC85"/>
<path d="M26.4213 41.8758C25.8229 41.8758 25.4624 41.425 25.4624 41.6433C25.4624 41.8615 25.6354 42.276 26.4213 42.276C27.2073 42.276 27.38 41.8615 27.38 41.6433C27.38 41.425 27.0195 41.8758 26.4213 41.8758Z" fill="#FCBC85"/>
<path d="M26.4216 40.269C23.6792 40.269 22.0273 39.1426 22.0273 39.4281C22.0273 39.7132 22.8204 40.8365 26.4216 40.8365C30.0228 40.8365 30.8158 39.7132 30.8158 39.4281C30.8158 39.1429 29.1637 40.269 26.4216 40.269Z" fill="#F7945E"/>
<path d="M16.292 37.8517C17.6042 37.8517 18.6679 36.779 18.6679 35.4556C18.6679 34.1322 17.6042 33.0594 16.292 33.0594C14.9798 33.0594 13.916 34.1322 13.916 35.4556C13.916 36.779 14.9798 37.8517 16.292 37.8517Z" fill="#F9AA8D"/>
<path d="M36.8427 37.8517C38.1549 37.8517 39.2187 36.779 39.2187 35.4556C39.2187 34.1322 38.1549 33.0594 36.8427 33.0594C35.5305 33.0594 34.4668 34.1322 34.4668 35.4556C34.4668 36.779 35.5305 37.8517 36.8427 37.8517Z" fill="#F9AA8D"/>
<path d="M26.4215 48.782V59.3763H8.16357C8.16357 55.0883 16.8338 48.782 26.4215 48.782Z" fill="#8FD6E7"/>
<path d="M26.4214 48.782V59.3763H44.679C44.679 55.0883 36.0091 48.782 26.4214 48.782Z" fill="#8FD6E7"/>
<path d="M26.4215 58.8966V48.782C23.7506 48.782 21.1599 49.2831 18.7993 50.0817L26.4215 58.8966Z" fill="#F6B1CF"/>
<path d="M26.4214 58.8966V48.782C29.092 48.782 31.6827 49.2831 34.0436 50.0817L26.4214 58.8966Z" fill="#F6B1CF"/>
<path d="M26.4215 48.782C24.479 48.782 22.5798 49.0506 20.7773 49.4991C21.034 51.0726 22.0877 54.3008 26.4215 54.3008C30.755 54.3008 31.8087 51.0726 32.0654 49.4991C30.2632 49.0503 28.3641 48.782 26.4215 48.782Z" fill="#F283B4"/>
<path d="M22.2529 49.1486C22.2529 49.1486 22.2526 52.9354 26.4214 52.9354C30.5899 52.9354 30.5899 49.1486 30.5899 49.1486C30.5899 49.1486 26.2648 47.5605 22.2529 49.1486Z" fill="#FDCC9B"/>
<path d="M20.0417 49.5722C20.1665 48.7538 15.1863 49.3571 15.2268 51.6662C15.2679 53.9754 20.7295 55.752 22.2301 56.593C23.7308 57.4337 26.3986 59.3759 26.3986 59.3759C26.3986 59.3759 26.8989 57.4251 24.5644 55.9199C22.2304 54.4154 19.8749 50.6654 20.0417 49.5722Z" fill="#3ABDAA"/>
<path d="M32.7403 49.5722C32.6155 48.7538 37.5957 49.3571 37.5552 51.6662C37.5141 53.9754 32.0525 55.752 30.5519 56.593C29.0512 57.4337 26.3834 59.3759 26.3834 59.3759C26.3834 59.3759 25.8831 57.4251 28.2176 55.9199C30.5516 54.4154 32.9071 50.6654 32.7403 49.5722Z" fill="#3ABDAA"/>
<path d="M26.4214 0.258911C7.66264 0.258911 5.16162 16.7768 5.16162 28.9495C5.16162 41.1224 11.4102 48.1913 16.292 50.1656C16.292 50.1656 8.4965 36.2332 12.3314 23.3351C15.4692 12.782 26.4214 15.8981 26.4214 15.8981C26.4214 15.8981 37.3731 12.7817 40.5112 23.3351C44.3461 36.2332 36.5506 50.1656 36.5506 50.1656C41.4327 48.1913 47.6812 41.1224 47.6812 28.9495C47.6812 16.7768 45.1802 0.258911 26.4214 0.258911Z" fill="#401900"/>
<path d="M32.7645 18.8127C32.7645 18.8127 25.7238 22.3722 19.5061 21.6577C13.2887 20.9429 10.9006 27.4437 11.2801 31.746L9.20508 22.1706L12.9569 14.5948L23.6491 9.04565L33.7521 9.51647L38.5434 13.7121L42.6118 18.8127L45.4716 22.1706L44.0957 32.504L41.1834 36.0363C41.1837 36.0363 43.8186 22.7784 32.7645 18.8127Z" fill="#401900"/>
</svg>
